<svg xmlns="http://www.w3.org/2000/svg" version="1.1" xmlns:xlink="http://www.w3.org/1999/xlink" xmlns:svgjs="http://svgjs.com/svgjs" width="263.33749pt" height="242.64856pt"><svg version="1.0" width="263.33749pt" height="242.64856pt" viewBox="0 0 263.33749 242.64856" preserveAspectRatio="xMidYMid meet" id="SvgjsSvg1005" sodipodi:docname="download.svg" inkscape:version="1.1.2 (b8e25be833, 2022-02-05)" xmlns:inkscape="http://www.inkscape.org/namespaces/inkscape" xmlns:sodipodi="http://sodipodi.sourceforge.net/DTD/sodipodi-0.dtd" xmlns="http://www.w3.org/2000/svg" xmlns:svg="http://www.w3.org/2000/svg">
  <defs id="SvgjsDefs1004"></defs>
  <sodipodi:namedview id="SvgjsSodipodi:namedview1003" pagecolor="#ffffff" bordercolor="#15803d" borderopacity="1.0" inkscape:pageshadow="2" inkscape:pageopacity="0.0" inkscape:pagecheckerboard="0" inkscape:document-units="pt" showgrid="false" fit-margin-top="0" fit-margin-left="0" fit-margin-right="0" fit-margin-bottom="0" inkscape:zoom="1.2129808" inkscape:cx="183.43242" inkscape:cy="247.32461" inkscape:window-width="1920" inkscape:window-height="1027" inkscape:window-x="-8" inkscape:window-y="-8" inkscape:window-maximized="1" inkscape:current-layer="svg8"></sodipodi:namedview>
  <metadata id="SvgjsMetadata1002">
Created by Shobit Deshwal
</metadata>
  <g transform="matrix(0.1,0,0,-0.1,-187.5,445.00605)" fill="#15803d" stroke="none" id="SvgjsG1001">
    <path d="m 2773,4435 c -43,-18 -49,-35 -56,-149 -6,-111 -21,-138 -86,-156 -20,-6 -170,-10 -342,-10 -301,0 -307,0 -339,-23 -19,-12 -43,-38 -54,-57 -21,-34 -21,-47 -21,-770 0,-717 0,-736 20,-769 26,-44 62,-70 111,-81 22,-6 471,-10 1029,-10 h 990 l 50,-24 c 56,-26 87,-57 234,-233 57,-67 112,-125 122,-128 26,-8 67,19 74,48 3,12 4,462 3,999 -3,975 -3,977 -24,1005 -12,15 -34,32 -50,36 -75,23 -79,27 -85,107 -6,89 -12,104 -45,119 -34,15 -275,15 -309,-1 -27,-12 -28,-16 -42,-112 -11,-82 -37,-101 -137,-101 -125,0 -148,25 -154,165 -8,168 15,160 -474,160 -303,-1 -390,-4 -415,-15 z m 569,-848 c 68,-34 131,-100 166,-175 22,-47 26,-71 26,-138 0,-72 -4,-90 -32,-147 -36,-73 -96,-132 -170,-169 -39,-19 -63,-23 -142,-23 -85,0 -101,3 -153,29 -276,140 -251,534 41,642 62,24 197,14 264,-19 z m -931,-190 c 70,-46 87,-140 38,-208 -60,-85 -193,-78 -250,13 -16,26 -19,45 -16,87 3,48 8,58 45,93 37,34 46,38 95,38 40,0 63,-6 88,-23 z m 1715,-8 c 55,-52 68,-115 36,-179 -48,-96 -189,-109 -251,-22 -41,59 -39,129 6,183 35,41 57,49 125,46 45,-3 64,-9 84,-28 z" id="SvgjsPath1000"></path>
  </g>
</svg><style>@media (prefers-color-scheme: light) { :root { filter: contrast(1) brightness(1); } }
@media (prefers-color-scheme: dark) { :root { filter: contrast(0.9090909090909091) brightness(1.5); } }
</style></svg>