<?xml version="1.0" standalone="no"?>
<!DOCTYPE svg PUBLIC "-//W3C//DTD SVG 20010904//EN"
 "http://www.w3.org/TR/2001/REC-SVG-20010904/DTD/svg10.dtd">
<svg version="1.0" xmlns="http://www.w3.org/2000/svg"
 width="702.000000pt" height="702.000000pt" viewBox="0 0 702.000000 702.000000"
 preserveAspectRatio="xMidYMid meet">
<metadata>
Created by potrace 1.14, written by Peter Selinger 2001-2017
</metadata>
<g transform="translate(0.000000,702.000000) scale(0.100000,-0.100000)"
fill="#000000" stroke="none">
<path d="M2758 6735 c-2 -2 -61 -6 -133 -9 -177 -9 -196 -11 -252 -38 -90 -43
-115 -119 -128 -383 -2 -44 -5 -80 -5 -80 -1 0 -3 -22 -6 -50 -2 -27 -13 -80
-24 -117 -36 -120 -122 -171 -310 -183 -97 -6 -611 -15 -822 -15 -10 0 -30 0
-45 1 -16 0 -37 -1 -48 -1 -27 -2 -32 -2 -97 0 -31 1 -61 -1 -67 -4 -5 -4 -12
-2 -16 4 -4 6 -10 8 -15 5 -5 -3 -109 -7 -232 -9 -129 -2 -241 -9 -267 -16
-107 -29 -239 -159 -262 -260 -21 -87 -24 -341 -24 -2000 0 -1671 3 -1886 23
-1970 23 -94 109 -191 216 -244 85 -42 97 -43 436 -51 172 -4 1853 -18 1910
-16 87 3 232 1 240 -4 6 -3 10 -2 10 2 0 5 15 7 33 6 17 -1 43 -2 57 -3 19 -1
883 -2 978 -1 9 0 89 0 177 0 88 0 165 0 170 0 6 0 33 0 60 0 28 0 59 0 70 0
16 0 311 0 350 0 6 0 33 0 60 0 28 0 58 0 68 0 16 0 284 0 325 0 9 0 135 0
280 0 l263 1 112 -55 c62 -30 125 -65 141 -77 43 -35 175 -167 232 -234 141
-162 202 -233 234 -273 19 -24 46 -56 60 -71 14 -15 50 -56 80 -91 30 -35 92
-101 138 -146 64 -64 89 -83 110 -83 45 0 124 46 152 87 l25 38 -1 2245 c0
2639 -5 2985 -39 3066 -30 71 -119 133 -232 160 -15 4 -47 20 -70 35 -54 37
-70 85 -78 231 -4 73 -12 136 -22 183 -4 17 -7 32 -8 35 0 3 -9 19 -19 37 -32
53 -87 71 -241 80 -196 12 -495 5 -595 -13 -19 -3 -40 -7 -46 -8 -26 -4 -67
-40 -79 -71 -13 -30 -30 -115 -41 -205 -30 -246 -106 -301 -407 -294 -126 3
-145 5 -205 25 -70 23 -131 104 -146 194 -13 76 -14 90 -21 210 -12 250 -20
288 -70 339 -42 43 -101 63 -260 84 -40 5 -1672 12 -1677 7z m852 -2220 c73
-9 82 -10 98 -15 4 -1 10 -2 13 -2 29 4 240 -76 259 -97 3 -3 23 -18 46 -34
76 -52 244 -227 244 -255 0 -6 4 -12 9 -14 13 -5 87 -147 106 -203 18 -53 19
-57 30 -123 9 -53 9 -271 0 -332 -22 -158 -138 -363 -281 -500 -162 -154 -317
-230 -476 -234 -27 -1 -48 -5 -48 -9 0 -4 -8 -3 -19 2 -10 6 -20 8 -23 6 -13
-14 -267 -2 -328 15 -177 48 -387 204 -505 376 -50 72 -111 215 -131 305 -19
88 -24 258 -10 354 4 28 19 86 32 130 91 288 299 501 594 609 83 30 233 38
390 21z m-2321 -529 c55 -7 135 -45 182 -88 38 -35 105 -118 95 -118 -4 0 0
-12 8 -28 29 -56 38 -162 20 -234 -34 -136 -155 -263 -271 -284 -14 -3 -30 -7
-33 -9 -11 -7 -122 -7 -153 0 -151 32 -283 152 -312 285 -15 67 -2 215 23 269
18 39 117 141 171 177 54 35 137 45 270 30z m4594 -15 c60 -14 90 -33 145 -89
79 -83 126 -210 110 -302 -12 -78 -17 -94 -43 -146 -66 -131 -200 -211 -354
-212 -148 0 -273 72 -339 197 -17 31 -34 72 -39 91 -13 58 -8 230 7 230 3 0
13 20 23 45 21 49 124 160 166 177 65 27 230 31 324 9z"/>
</g>
</svg>
